first trial
nRows=16
nColumns=38

# SIMM Motion File Header:
name Sujet_07_velo_100.mvnx
datacolumns 38
datarows 16
otherdata 1
range 11.6500 11.9000
endheader
time pelvis_tilt  pelvis_list  pelvis_rotation  pelvis_tx  pelvis_ty  pelvis_tz  hip_flexion_r  hip_adduction_r  hip_rotation_r  knee_angle_r  ankle_angle_r  subtalar_angle_r  mtp_angle_r  hip_flexion_l  hip_adduction_l  hip_rotation_l  knee_angle_l  ankle_angle_l  subtalar_angle_l  mtp_angle_l  lumbar_extension  lumbar_bending  lumbar_rotation  arm_flex_r  arm_add_r  arm_rot_r  elbow_flex_r  pro_sup_r  wrist_flex_r  wrist_dev_r  arm_flex_l  arm_add_l  arm_rot_l  elbow_flex_l  pro_sup_l  wrist_flex_l  wrist_dev_l
11.6500	-27.4025	-0.8168	-52.7141	0.0000	1.2500	-0.0000	66.5829	-7.3408	-8.0695	79.4436	-1.9489	1.2929	0.0000	74.0379	-6.9006	-5.9371	56.8877	5.1798	-3.0325	-0.0000	-18.7041	-0.4884	-0.7024	106.3323	-2.9321	20.7530	16.2107	65.9684	-47.3175	-39.1176	86.7626	-2.1395	38.0427	12.0485	39.8894	-43.9940	-46.4378	
11.6660	-27.2336	-1.1575	-53.6341	0.0000	1.2500	-0.0000	69.8481	-7.0548	-7.1569	84.7970	-0.8465	1.2625	-0.0000	69.9141	-7.1966	-5.9980	50.7819	2.2406	-2.4650	-0.0000	-18.7740	-0.5587	-0.5291	106.3236	-2.5740	20.8468	16.1394	66.2615	-47.2882	-38.9659	86.8400	-2.4575	37.6717	11.9406	39.9018	-43.7216	-46.3984	
11.6830	-27.0969	-1.5110	-54.7218	0.0000	1.2500	-0.0000	73.2078	-6.7390	-6.5473	89.5638	0.2290	1.0358	-0.0000	65.5408	-7.5934	-5.9826	44.8168	-0.8429	-2.0153	0.0000	-18.8342	-0.6721	-0.3313	106.3766	-2.1498	20.9178	16.0267	66.5778	-47.2703	-38.7956	86.9541	-2.8682	37.2412	11.8910	39.9769	-43.4590	-46.4029	
11.7000	-27.0211	-1.8640	-55.8583	0.0000	1.2500	-0.0000	76.4497	-6.3147	-6.2397	93.5053	1.7287	0.3529	-0.0000	61.4450	-8.0321	-5.9872	39.6400	-3.7257	-1.6808	-0.0000	-18.8656	-0.8023	-0.1064	106.5250	-1.7847	20.9935	15.9000	66.9262	-47.2752	-38.6838	86.9893	-3.2390	36.8753	11.8455	39.9728	-43.2805	-46.4670	
11.7160	-27.0168	-2.2055	-57.1017	0.0000	1.2500	-0.0000	79.6036	-5.7437	-6.3770	96.6474	3.9893	-1.0275	-0.0000	57.6797	-8.5510	-5.9897	35.3060	-6.5734	-1.4345	0.0000	-18.8577	-0.9767	0.1661	106.8320	-1.5224	21.0772	15.7532	67.3501	-47.3243	-38.6788	86.8682	-3.5225	36.6014	11.7737	39.8511	-43.2120	-46.6142	
11.7330	-27.0724	-2.5515	-58.3972	0.0000	1.2500	-0.0000	82.6281	-5.1196	-6.8336	98.9724	6.6523	-2.7926	0.0000	54.1858	-9.1062	-6.0088	31.7470	-9.2271	-1.2677	-0.0000	-18.8204	-1.1669	0.4662	107.2360	-1.3166	21.1666	15.5881	67.8054	-47.3965	-38.7324	86.6694	-3.7637	36.3909	11.7049	39.6494	-43.2278	-46.8212	
11.7500	-27.1852	-2.9307	-59.4573	0.0000	1.2500	-0.0000	85.2174	-4.5523	-7.1556	100.1667	9.1372	-4.4169	0.0000	51.3425	-9.5470	-6.1303	29.4504	-10.8426	-1.2291	0.0000	-18.7674	-1.2620	0.7350	107.5845	-1.1595	21.2817	15.4447	68.1701	-47.4397	-38.7766	86.5147	-3.9697	36.2846	11.6741	39.3396	-43.3241	-47.0347	
11.7660	-27.3948	-3.4135	-60.1825	0.0000	1.2500	-0.0000	87.3611	-4.0567	-7.0314	100.0340	11.4214	-5.9343	-0.0000	49.2532	-9.8494	-6.3443	28.5206	-11.0261	-1.4494	-0.0000	-18.6907	-1.1946	0.9642	107.8089	-1.0667	21.4630	15.3330	68.3691	-47.4198	-38.7878	86.4523	-4.1458	36.3400	11.7150	38.8428	-43.5593	-47.2549	
11.7830	-27.6647	-3.9318	-60.6751	0.0000	1.2500	-0.0000	89.0865	-3.6129	-6.7059	98.7655	13.5383	-7.3288	-0.0000	47.8329	-10.0856	-6.5978	28.8699	-10.1573	-1.8408	-0.0000	-18.6010	-1.0323	1.1624	107.9793	-1.0245	21.6703	15.2455	68.4784	-47.3709	-38.7892	86.4356	-4.2898	36.5001	11.7939	38.2385	-43.8749	-47.4818	
11.8000	-27.8810	-4.3026	-60.9460	0.0000	1.2500	-0.0000	90.1522	-3.2640	-6.5235	96.6116	15.0358	-8.1391	-0.0000	47.1889	-10.2638	-6.8772	30.7092	-8.5463	-2.1598	-0.0000	-18.5414	-0.8678	1.2949	108.1511	-0.9824	21.8013	15.1975	68.6022	-47.3435	-38.7838	86.4434	-4.3981	36.6344	11.8450	37.7365	-44.0919	-47.6610	
11.8160	-28.0221	-4.4691	-60.9661	0.0000	1.2500	-0.0000	90.4973	-3.0151	-6.4626	93.5470	15.7883	-8.1884	-0.0000	47.4334	-10.3986	-7.2557	34.3481	-5.9061	-2.3287	0.0000	-18.5300	-0.7138	1.3508	108.3840	-0.9124	21.7651	15.2221	68.8361	-47.3649	-38.7678	86.4881	-4.4625	36.6981	11.8436	37.4057	-44.1115	-47.7701	
11.8330	-28.1138	-4.4838	-60.7604	0.0000	1.2500	-0.0000	90.1827	-2.8594	-6.5209	89.5888	15.9428	-7.8168	0.0000	48.4559	-10.4869	-7.6402	39.4769	-2.5130	-2.4063	-0.0000	-18.5469	-0.5576	1.3410	108.6188	-0.8434	21.6534	15.2876	69.0849	-47.4080	-38.7454	86.5581	-4.4905	36.7369	11.8152	37.1776	-44.0325	-47.8309	
11.8500	-28.1129	-4.3267	-60.4183	0.0000	1.2500	-0.0000	89.1514	-2.8185	-7.0802	85.0394	15.4591	-7.2870	-0.0000	50.0266	-10.4983	-7.7753	45.3746	0.4678	-2.3909	-0.0000	-18.5781	-0.4544	1.2630	108.7312	-0.8104	21.6367	15.3107	69.1649	-47.4413	-38.7316	86.5961	-4.4997	36.7565	11.7684	37.0556	-43.9724	-47.8557	
11.8660	-27.9725	-3.9362	-59.9584	0.0000	1.2500	-0.0000	87.2925	-2.8486	-8.5923	79.8316	14.3032	-6.5869	-0.0000	52.1679	-10.3814	-7.5733	52.1379	2.6398	-2.3258	0.0000	-18.6271	-0.4448	1.1013	108.6540	-0.8272	21.8873	15.2274	68.8850	-47.4560	-38.7393	86.6024	-4.4759	36.7595	11.6731	37.0452	-43.9692	-47.8480	
11.8830	-27.7344	-3.3780	-59.3660	0.0000	1.2500	-0.0000	84.7297	-2.9243	-10.6324	73.9710	12.5079	-5.6293	0.0000	54.8535	-10.1593	-7.1597	59.6714	4.3910	-2.2122	0.0000	-18.6911	-0.4884	0.8712	108.4538	-0.8795	22.2322	15.0977	68.4352	-47.4610	-38.7556	86.5765	-4.4331	36.7434	11.5593	37.1408	-43.9851	-47.8044	
11.9000	-27.4904	-2.8219	-58.6806	0.0000	1.2500	-0.0000	81.7466	-3.1247	-12.2772	67.9135	10.1236	-4.5050	0.0000	57.7839	-9.9007	-6.5902	66.9669	5.7195	-2.0118	0.0000	-18.7474	-0.5186	0.6155	108.2060	-0.9605	22.3230	15.0272	68.2045	-47.4515	-38.7573	86.4601	-4.4314	36.7068	11.5260	37.3285	-44.0243	-47.7276	
